<svg id="undraw_Designer_girl_s028" xmlns="http://www.w3.org/2000/svg" width="458.692" height="782.517" viewBox="0 0 458.692 782.517">
  <defs>
    <style>
      .cls-1 {
        fill: #002e4e;
        stroke: #002e4e;
        stroke-miterlimit: 10;
        stroke-width: 1.124px;
      }

      .cls-2 {
        fill: #c5cae9;
      }

      .cls-3 {
        fill: #1a237e;
      }

      .cls-4 {
        fill: #536dfe;
      }

      .cls-5 {
        fill: #533d30;
      }

      .cls-6 {
        fill: #ffb8b8;
      }

      .cls-7 {
        opacity: 0.1;
      }

      .cls-8 {
        fill: #2f2e41;
      }

      .cls-9 {
        fill: #3f3d56;
      }
    </style>
  </defs>
  <path id="Tracé_346" data-name="Tracé 346" class="cls-1" d="M245.882,401.346l5.01,3.718L193.947,493.1l-11.186,5.832Z"/>
  <path id="Tracé_347" data-name="Tracé 347" class="cls-2" d="M0,381.559,197.236,139l20.057,13.816L22.229,398.446Z"/>
  <path id="Tracé_348" data-name="Tracé 348" class="cls-3" d="M139.157,251.209l21.306,13.165-38.444,45.8-19.4-12.959Z"/>
  <path id="Tracé_349" data-name="Tracé 349" class="cls-3" d="M146.766,280.691l66.906,109.5-26.187,1.6L131.72,296.226Z"/>
  <rect id="Rectangle_91" data-name="Rectangle 91" class="cls-3" width="195.843" height="9.211" transform="translate(61.567 389.235)"/>
  <rect id="Rectangle_92" data-name="Rectangle 92" class="cls-3" width="24.515" height="318.612" transform="translate(72.182 407.476)"/>
  <rect id="Rectangle_93" data-name="Rectangle 93" class="cls-3" width="22.844" height="318.612" transform="translate(277.217 407.476)"/>
  <rect id="Rectangle_94" data-name="Rectangle 94" class="cls-4" width="353.299" height="18.934" transform="translate(13.622 396.538)"/>
  <ellipse id="Ellipse_26" data-name="Ellipse 26" class="cls-5" cx="47.01" cy="47.886" rx="47.01" ry="47.886" transform="translate(272.527 37.352)"/>
  <path id="Tracé_350" data-name="Tracé 350" class="cls-6" d="M710.937,238.5a8.765,8.765,0,0,0-10.47,2.72c-4.175,5.309-9.873,16.96-7.686,39.814l8.471,88.513,1.348,89.22S715.343,499.9,734,499.515s-15.452-39.4-15.452-39.4,4.73-70.781,2.786-91.1C719.522,350.081,737.462,250.253,710.937,238.5Z" transform="translate(-361.659 -62.483)"/>
  <path id="Tracé_351" data-name="Tracé 351" class="cls-6" d="M687.934,198l-10.7,29.526,15.289,4.811,2.147,42.848-37.907-20.8-19.092-21.43-2.382-16.445s14.723-2.6,20.076-35.719Z" transform="translate(-361.659 -62.483)"/>
  <path id="Tracé_352" data-name="Tracé 352" class="cls-6" d="M759.706,444.686s66.882,68.4,49.648,104.47S708.013,711.479,708.013,711.479l-22.5-29.189s22.116-16.379,32.417-54.764,33.613-64.9,40.494-74.332-64.606-75.466-58.291-92.313S759.706,444.686,759.706,444.686Z" transform="translate(-361.659 -62.483)"/>
  <path id="Tracé_353" data-name="Tracé 353" class="cls-7" d="M759.706,444.686s66.882,68.4,49.648,104.47S708.013,711.479,708.013,711.479l-22.5-29.189s22.116-16.379,32.417-54.764,33.613-64.9,40.494-74.332-64.606-75.466-58.291-92.313S759.706,444.686,759.706,444.686Z" transform="translate(-361.659 -62.483)"/>
  <path id="Tracé_354" data-name="Tracé 354" class="cls-8" d="M717.682,690.637s6.987,14.072,4.882,19.688-13.142,38.037-13.142,38.037,11.752,46.962,3.226,45.917-39.381-32.727-38.013-44.307l3.932-33.292-9.552,7.64-12.158-19.111L673.8,683.791s18.2-19.8,23.879-19.1S717.682,690.637,717.682,690.637Z" transform="translate(-361.659 -62.483)"/>
  <path id="Tracé_355" data-name="Tracé 355" class="cls-6" d="M704.394,461.4l4.487,10.829,18.846,84.542s7.5,9.73,5.16,41.748S770.7,754.4,770.7,754.4l1.357,25.13L747.9,776.572l-16.474-31.388s-6.186-33.063-24.252-63.178-18.044-103.533-18.044-103.533L640.5,465.319l38.26-18.806Z" transform="translate(-361.659 -62.483)"/>
  <path id="Tracé_356" data-name="Tracé 356" class="cls-8" d="M762.458,738.709s7.276-.577,8.355,2.492,22.831,63,22.831,63,41.368,40.312,21.133,40.769-54.168-5.17-59.906-17.621-12.382-29.418-12.382-29.418l-2.052,17.37-16.026-10.775s-8.963-58.367,1.5-61.491S762.458,738.709,762.458,738.709Z" transform="translate(-361.659 -62.483)"/>
  <path id="Tracé_357" data-name="Tracé 357" class="cls-8" d="M738.061,408.259S755,423.55,753.4,424.824s9.6,4.114,7.5,9.73,9.487,17.315,3.8,16.619-27.736-9.273-52.128,14.169l-4.263-.522.566,7.412s-17.671-21.255-63.325,11.328c0,0-15.118-6.258-13.013-11.874s-24.552-11.82-10.16-48.235,58.955-35.359,58.955-35.359Z" transform="translate(-361.659 -62.483)"/>
  <path id="Tracé_358" data-name="Tracé 358" class="cls-9" d="M646.319,220.8s-7.329-11.177-11.763-10.252-28.677.367-32.544,8.7,14.551,94.818,11.591,107.671-18.677,109.312-5.152,116.843,29.339-28.71,29.339-28.71,42.523-18.283,78.614-6.518,25.012-4.277,25.012-4.277-25.855-25.2-21.923-58.487,5.7-36.013-.95-52.98c0,0-1.186-26.577-.331-33.814s6.144-15.4,2.223-18.817-44.617-12.81-44.617-12.81,20.631,8.4,11.25,14.595S646.319,220.8,646.319,220.8Z" transform="translate(-361.659 -62.483)"/>
  <ellipse id="Ellipse_27" data-name="Ellipse 27" class="cls-6" cx="34.35" cy="34.99" rx="34.35" ry="34.99" transform="translate(286.477 73.431)"/>
  <path id="Tracé_359" data-name="Tracé 359" class="cls-6" d="M610.284,215.2a8.77,8.77,0,0,1,10.407,2.96c4.057,5.4,9.495,17.183,6.8,39.98l-10.429,88.3-3.324,89.167s2.147,42.848-16.5,42.031.524-41.052.524-41.052-3.161-70.872-.768-91.137C599.231,326.558,583.505,226.343,610.284,215.2Z" transform="translate(-361.659 -62.483)"/>
  <path id="Tracé_360" data-name="Tracé 360" class="cls-5" d="M656.658,62.483a25.759,25.759,0,0,0,14.827,10.383c10.368,2.828.085,18.7.085,18.7s3.739-5.771-1.654-11.883S655.842,69.392,656.658,62.483Z" transform="translate(-361.659 -62.483)"/>
  <ellipse id="Ellipse_28" data-name="Ellipse 28" class="cls-5" cx="13.101" cy="13.345" rx="13.101" ry="13.345" transform="translate(298.647 19.544)"/>
  <path id="Tracé_361" data-name="Tracé 361" class="cls-9" d="M656.68,106.558c10.68-4.115,28.464-6.2,37.613-4.775l-1.255-9.333c-8.8,4.631-26.5,6.807-37.613,4.775Z" transform="translate(-361.659 -62.483)"/>
  <path id="Tracé_362" data-name="Tracé 362" class="cls-5" d="M677.347,109.9s13.385,22.679,44.51,31.169.254,56.134.254,56.134,11.226-17.325-4.966-35.673S674.9,130.637,677.347,109.9Z" transform="translate(-361.659 -62.483)"/>
  <path id="Tracé_363" data-name="Tracé 363" class="cls-5" d="M676.284,108.521s-12.859,31.151-26.976,34.1-13.046,52.167,9.031,59.548c0,0-16.1-28.856-2.338-48.208S678.453,119.306,676.284,108.521Z" transform="translate(-361.659 -62.483)"/>
</svg>
